<mxfile host="app.diagrams.net" modified="2022-12-06T11:58:12.620Z" agent="5.0 (Macintosh; Intel Mac OS X 10_15_7) AppleWebKit/537.36 (KHTML, like Gecko) Chrome/107.0.0.0 Safari/537.36" etag="y6KTv-9frEKTMA-I1em_" version="20.6.0" type="github">
  <diagram id="hKEFcVOWYuQNVetPsd1Z" name="Page-1">
    <mxGraphModel dx="3533" dy="1526" grid="1" gridSize="10" guides="1" tooltips="1" connect="1" arrows="1" fold="1" page="1" pageScale="1" pageWidth="827" pageHeight="1169" math="0" shadow="0">
      <root>
        <mxCell id="0" />
        <mxCell id="1" parent="0" />
        <mxCell id="jaan2FT7NBJSKafwd26K-1" value="" style="group" vertex="1" connectable="0" parent="1">
          <mxGeometry x="-600" y="80" width="1200" height="540" as="geometry" />
        </mxCell>
        <mxCell id="h2QXagE_mMSnSEgBEtUH-2" value="" style="rounded=0;whiteSpace=wrap;html=1;fillColor=#f5f5f5;strokeColor=#666666;fontColor=#333333;" parent="jaan2FT7NBJSKafwd26K-1" vertex="1">
          <mxGeometry width="1200" height="540" as="geometry" />
        </mxCell>
        <mxCell id="h2QXagE_mMSnSEgBEtUH-3" value="&lt;font style=&quot;font-size: 18px;&quot;&gt;Customer Management&lt;/font&gt;" style="rounded=1;whiteSpace=wrap;html=1;fillColor=#dae8fc;strokeColor=#6c8ebf;" parent="jaan2FT7NBJSKafwd26K-1" vertex="1">
          <mxGeometry x="52" y="70" width="268" height="130" as="geometry" />
        </mxCell>
        <mxCell id="h2QXagE_mMSnSEgBEtUH-6" value="&lt;font style=&quot;font-size: 18px;&quot;&gt;Account Management&lt;/font&gt;" style="rounded=1;whiteSpace=wrap;html=1;fillColor=#dae8fc;strokeColor=#6c8ebf;" parent="jaan2FT7NBJSKafwd26K-1" vertex="1">
          <mxGeometry x="440" y="70" width="270" height="130" as="geometry" />
        </mxCell>
        <mxCell id="h2QXagE_mMSnSEgBEtUH-7" value="&lt;font style=&quot;font-size: 18px;&quot;&gt;Biller Management&lt;/font&gt;" style="rounded=1;whiteSpace=wrap;html=1;fillColor=#dae8fc;strokeColor=#6c8ebf;" parent="jaan2FT7NBJSKafwd26K-1" vertex="1">
          <mxGeometry x="830" y="70" width="270" height="130" as="geometry" />
        </mxCell>
        <mxCell id="h2QXagE_mMSnSEgBEtUH-10" value="&lt;font style=&quot;font-size: 18px;&quot;&gt;Notification management&lt;/font&gt;" style="rounded=1;whiteSpace=wrap;html=1;fillColor=#fff2cc;strokeColor=#d6b656;" parent="jaan2FT7NBJSKafwd26K-1" vertex="1">
          <mxGeometry x="440" y="280" width="270" height="130" as="geometry" />
        </mxCell>
        <mxCell id="h2QXagE_mMSnSEgBEtUH-11" value="&lt;font style=&quot;font-size: 18px;&quot;&gt;Batch Processing- Payment&lt;/font&gt;" style="rounded=1;whiteSpace=wrap;html=1;fillColor=#d5e8d4;strokeColor=#82b366;" parent="jaan2FT7NBJSKafwd26K-1" vertex="1">
          <mxGeometry x="830" y="280" width="270" height="130" as="geometry" />
        </mxCell>
        <mxCell id="h2QXagE_mMSnSEgBEtUH-12" value="&lt;font style=&quot;font-size: 18px;&quot;&gt;Payment Service&lt;/font&gt;" style="rounded=1;whiteSpace=wrap;html=1;fillColor=#dae8fc;strokeColor=#6c8ebf;" parent="jaan2FT7NBJSKafwd26K-1" vertex="1">
          <mxGeometry x="52" y="280" width="270" height="130" as="geometry" />
        </mxCell>
        <mxCell id="h2QXagE_mMSnSEgBEtUH-13" value="&lt;font style=&quot;font-size: 18px;&quot;&gt;Billpayment - Core domain&lt;/font&gt;" style="text;strokeColor=none;fillColor=none;html=1;fontSize=24;fontStyle=1;verticalAlign=middle;align=center;" parent="jaan2FT7NBJSKafwd26K-1" vertex="1">
          <mxGeometry x="70" width="100" height="40" as="geometry" />
        </mxCell>
        <mxCell id="h2QXagE_mMSnSEgBEtUH-14" value="" style="rounded=1;whiteSpace=wrap;html=1;fontSize=18;fillColor=#dae8fc;strokeColor=#6c8ebf;" parent="jaan2FT7NBJSKafwd26K-1" vertex="1">
          <mxGeometry x="60" y="460" width="40" height="20" as="geometry" />
        </mxCell>
        <mxCell id="h2QXagE_mMSnSEgBEtUH-15" value="" style="rounded=1;whiteSpace=wrap;html=1;fontSize=18;fillColor=#fff2cc;strokeColor=#d6b656;" parent="jaan2FT7NBJSKafwd26K-1" vertex="1">
          <mxGeometry x="60" y="495" width="40" height="20" as="geometry" />
        </mxCell>
        <mxCell id="h2QXagE_mMSnSEgBEtUH-16" value="&lt;ul&gt;&lt;li&gt;sub-domain&lt;/li&gt;&lt;/ul&gt;" style="text;strokeColor=none;fillColor=none;html=1;whiteSpace=wrap;verticalAlign=middle;overflow=hidden;fontSize=18;" parent="jaan2FT7NBJSKafwd26K-1" vertex="1">
          <mxGeometry x="90" y="440" width="150" height="50" as="geometry" />
        </mxCell>
        <mxCell id="h2QXagE_mMSnSEgBEtUH-17" value="&lt;ul&gt;&lt;li&gt;generic-domain&lt;/li&gt;&lt;/ul&gt;" style="text;strokeColor=none;fillColor=none;html=1;whiteSpace=wrap;verticalAlign=middle;overflow=hidden;fontSize=18;" parent="jaan2FT7NBJSKafwd26K-1" vertex="1">
          <mxGeometry x="90" y="473" width="200" height="50" as="geometry" />
        </mxCell>
        <mxCell id="h2QXagE_mMSnSEgBEtUH-18" value="" style="rounded=1;whiteSpace=wrap;html=1;fontSize=18;fillColor=#d5e8d4;strokeColor=#82b366;" parent="jaan2FT7NBJSKafwd26K-1" vertex="1">
          <mxGeometry x="290" y="460" width="40" height="20" as="geometry" />
        </mxCell>
        <mxCell id="h2QXagE_mMSnSEgBEtUH-19" value="&lt;ul&gt;&lt;li&gt;supporting-domain&lt;/li&gt;&lt;/ul&gt;" style="text;strokeColor=none;fillColor=none;html=1;whiteSpace=wrap;verticalAlign=middle;overflow=hidden;fontSize=18;" parent="jaan2FT7NBJSKafwd26K-1" vertex="1">
          <mxGeometry x="320" y="440" width="210" height="50" as="geometry" />
        </mxCell>
      </root>
    </mxGraphModel>
  </diagram>
</mxfile>
